<mxfile host="Electron" agent="Mozilla/5.0 (Windows NT 10.0; Win64; x64) AppleWebKit/537.36 (KHTML, like Gecko) draw.io/26.2.15 Chrome/134.0.6998.205 Electron/35.2.1 Safari/537.36" version="26.2.15">
  <diagram name="Page-1" id="yWDS3eIDdbbc97fjiq93">
    <mxGraphModel dx="3547" dy="3130" grid="1" gridSize="10" guides="1" tooltips="1" connect="1" arrows="1" fold="1" page="1" pageScale="1" pageWidth="827" pageHeight="1169" math="0" shadow="0">
      <root>
        <mxCell id="0" />
        <mxCell id="1" parent="0" />
        <mxCell id="4ijnzWLCs2FJMQsc7-n7-1" value="" style="ellipse;fillColor=strokeColor;html=1;" vertex="1" parent="1">
          <mxGeometry x="330" y="40" width="30" height="30" as="geometry" />
        </mxCell>
        <mxCell id="4ijnzWLCs2FJMQsc7-n7-2" value="Login" style="shape=folder;align=center;verticalAlign=middle;fontStyle=0;tabWidth=100;tabHeight=30;tabPosition=left;html=1;boundedLbl=1;labelInHeader=1;rounded=1;absoluteArcSize=1;arcSize=10;whiteSpace=wrap;" vertex="1" parent="1">
          <mxGeometry x="130" y="160" width="530" height="420" as="geometry" />
        </mxCell>
        <mxCell id="4ijnzWLCs2FJMQsc7-n7-4" style="edgeStyle=orthogonalEdgeStyle;rounded=0;orthogonalLoop=1;jettySize=auto;html=1;exitX=0.5;exitY=1;exitDx=0;exitDy=0;entryX=0.408;entryY=0.07;entryDx=0;entryDy=0;entryPerimeter=0;" edge="1" parent="1" source="4ijnzWLCs2FJMQsc7-n7-1" target="4ijnzWLCs2FJMQsc7-n7-2">
          <mxGeometry relative="1" as="geometry" />
        </mxCell>
        <mxCell id="4ijnzWLCs2FJMQsc7-n7-5" value="open app" style="edgeLabel;html=1;align=center;verticalAlign=middle;resizable=0;points=[];" vertex="1" connectable="0" parent="4ijnzWLCs2FJMQsc7-n7-4">
          <mxGeometry x="-0.194" y="-1" relative="1" as="geometry">
            <mxPoint as="offset" />
          </mxGeometry>
        </mxCell>
        <mxCell id="4ijnzWLCs2FJMQsc7-n7-8" style="edgeStyle=orthogonalEdgeStyle;rounded=0;orthogonalLoop=1;jettySize=auto;html=1;exitX=0.5;exitY=1;exitDx=0;exitDy=0;entryX=0.5;entryY=0;entryDx=0;entryDy=0;" edge="1" parent="1" source="4ijnzWLCs2FJMQsc7-n7-6" target="4ijnzWLCs2FJMQsc7-n7-7">
          <mxGeometry relative="1" as="geometry" />
        </mxCell>
        <mxCell id="4ijnzWLCs2FJMQsc7-n7-9" value="Enter login details" style="edgeLabel;html=1;align=center;verticalAlign=middle;resizable=0;points=[];" vertex="1" connectable="0" parent="4ijnzWLCs2FJMQsc7-n7-8">
          <mxGeometry x="-0.02" y="-1" relative="1" as="geometry">
            <mxPoint as="offset" />
          </mxGeometry>
        </mxCell>
        <mxCell id="4ijnzWLCs2FJMQsc7-n7-6" value="" style="ellipse;fillColor=strokeColor;html=1;" vertex="1" parent="1">
          <mxGeometry x="350" y="210" width="30" height="30" as="geometry" />
        </mxCell>
        <mxCell id="4ijnzWLCs2FJMQsc7-n7-13" style="edgeStyle=orthogonalEdgeStyle;rounded=0;orthogonalLoop=1;jettySize=auto;html=1;exitX=0.5;exitY=1;exitDx=0;exitDy=0;entryX=0.5;entryY=0;entryDx=0;entryDy=0;" edge="1" parent="1" source="4ijnzWLCs2FJMQsc7-n7-7" target="4ijnzWLCs2FJMQsc7-n7-10">
          <mxGeometry relative="1" as="geometry" />
        </mxCell>
        <mxCell id="4ijnzWLCs2FJMQsc7-n7-21" value="Submit" style="edgeLabel;html=1;align=center;verticalAlign=middle;resizable=0;points=[];" vertex="1" connectable="0" parent="4ijnzWLCs2FJMQsc7-n7-13">
          <mxGeometry x="-0.0337" relative="1" as="geometry">
            <mxPoint as="offset" />
          </mxGeometry>
        </mxCell>
        <mxCell id="4ijnzWLCs2FJMQsc7-n7-7" value="Credentials" style="html=1;align=center;verticalAlign=top;rounded=1;absoluteArcSize=1;arcSize=10;dashed=0;whiteSpace=wrap;" vertex="1" parent="1">
          <mxGeometry x="317.5" y="300" width="92.5" height="30" as="geometry" />
        </mxCell>
        <mxCell id="4ijnzWLCs2FJMQsc7-n7-15" style="edgeStyle=orthogonalEdgeStyle;rounded=0;orthogonalLoop=1;jettySize=auto;html=1;exitX=0.5;exitY=1;exitDx=0;exitDy=0;entryX=0.5;entryY=0;entryDx=0;entryDy=0;" edge="1" parent="1" source="4ijnzWLCs2FJMQsc7-n7-10" target="4ijnzWLCs2FJMQsc7-n7-11">
          <mxGeometry relative="1" as="geometry" />
        </mxCell>
        <mxCell id="4ijnzWLCs2FJMQsc7-n7-23" value="Success" style="edgeLabel;html=1;align=center;verticalAlign=middle;resizable=0;points=[];" vertex="1" connectable="0" parent="4ijnzWLCs2FJMQsc7-n7-15">
          <mxGeometry x="0.1627" relative="1" as="geometry">
            <mxPoint as="offset" />
          </mxGeometry>
        </mxCell>
        <mxCell id="4ijnzWLCs2FJMQsc7-n7-16" style="edgeStyle=orthogonalEdgeStyle;rounded=0;orthogonalLoop=1;jettySize=auto;html=1;exitX=0.75;exitY=1;exitDx=0;exitDy=0;entryX=0.5;entryY=0;entryDx=0;entryDy=0;" edge="1" parent="1" source="4ijnzWLCs2FJMQsc7-n7-10" target="4ijnzWLCs2FJMQsc7-n7-12">
          <mxGeometry relative="1" as="geometry" />
        </mxCell>
        <mxCell id="4ijnzWLCs2FJMQsc7-n7-22" value="Failure" style="edgeLabel;html=1;align=center;verticalAlign=middle;resizable=0;points=[];" vertex="1" connectable="0" parent="4ijnzWLCs2FJMQsc7-n7-16">
          <mxGeometry x="-0.0805" y="3" relative="1" as="geometry">
            <mxPoint as="offset" />
          </mxGeometry>
        </mxCell>
        <mxCell id="4ijnzWLCs2FJMQsc7-n7-10" value="Verification" style="html=1;align=center;verticalAlign=top;rounded=1;absoluteArcSize=1;arcSize=10;dashed=0;whiteSpace=wrap;" vertex="1" parent="1">
          <mxGeometry x="240" y="370" width="90" height="30" as="geometry" />
        </mxCell>
        <mxCell id="4ijnzWLCs2FJMQsc7-n7-19" style="edgeStyle=orthogonalEdgeStyle;rounded=0;orthogonalLoop=1;jettySize=auto;html=1;exitX=0.5;exitY=1;exitDx=0;exitDy=0;entryX=0.5;entryY=0;entryDx=0;entryDy=0;" edge="1" parent="1" source="4ijnzWLCs2FJMQsc7-n7-11" target="4ijnzWLCs2FJMQsc7-n7-18">
          <mxGeometry relative="1" as="geometry" />
        </mxCell>
        <mxCell id="4ijnzWLCs2FJMQsc7-n7-11" value="Account access" style="html=1;align=center;verticalAlign=top;rounded=1;absoluteArcSize=1;arcSize=10;dashed=0;whiteSpace=wrap;" vertex="1" parent="1">
          <mxGeometry x="210" y="450" width="100" height="30" as="geometry" />
        </mxCell>
        <mxCell id="4ijnzWLCs2FJMQsc7-n7-17" style="edgeStyle=orthogonalEdgeStyle;rounded=0;orthogonalLoop=1;jettySize=auto;html=1;exitX=0.75;exitY=0;exitDx=0;exitDy=0;entryX=1;entryY=0.5;entryDx=0;entryDy=0;" edge="1" parent="1" source="4ijnzWLCs2FJMQsc7-n7-12" target="4ijnzWLCs2FJMQsc7-n7-7">
          <mxGeometry relative="1" as="geometry" />
        </mxCell>
        <mxCell id="4ijnzWLCs2FJMQsc7-n7-20" value="Retry" style="edgeLabel;html=1;align=center;verticalAlign=middle;resizable=0;points=[];" vertex="1" connectable="0" parent="4ijnzWLCs2FJMQsc7-n7-17">
          <mxGeometry x="-0.3608" y="3" relative="1" as="geometry">
            <mxPoint as="offset" />
          </mxGeometry>
        </mxCell>
        <mxCell id="4ijnzWLCs2FJMQsc7-n7-12" value="Login failed" style="html=1;align=center;verticalAlign=top;rounded=1;absoluteArcSize=1;arcSize=10;dashed=0;whiteSpace=wrap;" vertex="1" parent="1">
          <mxGeometry x="450" y="440" width="87" height="30" as="geometry" />
        </mxCell>
        <mxCell id="4ijnzWLCs2FJMQsc7-n7-18" value="" style="ellipse;html=1;shape=endState;fillColor=strokeColor;" vertex="1" parent="1">
          <mxGeometry x="245" y="530" width="30" height="30" as="geometry" />
        </mxCell>
        <mxCell id="4ijnzWLCs2FJMQsc7-n7-46" style="edgeStyle=orthogonalEdgeStyle;rounded=0;orthogonalLoop=1;jettySize=auto;html=1;exitX=0.5;exitY=1;exitDx=0;exitDy=0;exitPerimeter=0;entryX=0.5;entryY=0;entryDx=0;entryDy=0;" edge="1" parent="1" source="4ijnzWLCs2FJMQsc7-n7-24" target="4ijnzWLCs2FJMQsc7-n7-44">
          <mxGeometry relative="1" as="geometry" />
        </mxCell>
        <mxCell id="4ijnzWLCs2FJMQsc7-n7-47" value="Review options" style="edgeLabel;html=1;align=center;verticalAlign=middle;resizable=0;points=[];" vertex="1" connectable="0" parent="4ijnzWLCs2FJMQsc7-n7-46">
          <mxGeometry x="0.0536" relative="1" as="geometry">
            <mxPoint as="offset" />
          </mxGeometry>
        </mxCell>
        <mxCell id="4ijnzWLCs2FJMQsc7-n7-24" value="Browse" style="shape=folder;align=center;verticalAlign=middle;fontStyle=0;tabWidth=100;tabHeight=30;tabPosition=left;html=1;boundedLbl=1;labelInHeader=1;rounded=1;absoluteArcSize=1;arcSize=10;whiteSpace=wrap;" vertex="1" parent="1">
          <mxGeometry x="140" y="670" width="520" height="360" as="geometry" />
        </mxCell>
        <mxCell id="4ijnzWLCs2FJMQsc7-n7-25" style="edgeStyle=orthogonalEdgeStyle;rounded=0;orthogonalLoop=1;jettySize=auto;html=1;exitX=0.5;exitY=1;exitDx=0;exitDy=0;exitPerimeter=0;entryX=0.478;entryY=0.074;entryDx=0;entryDy=0;entryPerimeter=0;" edge="1" parent="1" source="4ijnzWLCs2FJMQsc7-n7-2" target="4ijnzWLCs2FJMQsc7-n7-24">
          <mxGeometry relative="1" as="geometry" />
        </mxCell>
        <mxCell id="4ijnzWLCs2FJMQsc7-n7-31" style="edgeStyle=orthogonalEdgeStyle;rounded=0;orthogonalLoop=1;jettySize=auto;html=1;exitX=0.5;exitY=1;exitDx=0;exitDy=0;entryX=0.5;entryY=0;entryDx=0;entryDy=0;" edge="1" parent="1" source="4ijnzWLCs2FJMQsc7-n7-26" target="4ijnzWLCs2FJMQsc7-n7-27">
          <mxGeometry relative="1" as="geometry" />
        </mxCell>
        <mxCell id="4ijnzWLCs2FJMQsc7-n7-32" value="Display options" style="edgeLabel;html=1;align=center;verticalAlign=middle;resizable=0;points=[];" vertex="1" connectable="0" parent="4ijnzWLCs2FJMQsc7-n7-31">
          <mxGeometry x="-0.12" relative="1" as="geometry">
            <mxPoint as="offset" />
          </mxGeometry>
        </mxCell>
        <mxCell id="4ijnzWLCs2FJMQsc7-n7-26" value="" style="ellipse;fillColor=strokeColor;html=1;" vertex="1" parent="1">
          <mxGeometry x="380" y="710" width="30" height="30" as="geometry" />
        </mxCell>
        <mxCell id="4ijnzWLCs2FJMQsc7-n7-33" style="edgeStyle=orthogonalEdgeStyle;rounded=0;orthogonalLoop=1;jettySize=auto;html=1;exitX=0;exitY=1;exitDx=0;exitDy=0;entryX=0.5;entryY=0;entryDx=0;entryDy=0;" edge="1" parent="1" source="4ijnzWLCs2FJMQsc7-n7-27" target="4ijnzWLCs2FJMQsc7-n7-28">
          <mxGeometry relative="1" as="geometry" />
        </mxCell>
        <mxCell id="4ijnzWLCs2FJMQsc7-n7-40" value="View single rides" style="edgeLabel;html=1;align=center;verticalAlign=middle;resizable=0;points=[];" vertex="1" connectable="0" parent="4ijnzWLCs2FJMQsc7-n7-33">
          <mxGeometry x="0.3356" y="1" relative="1" as="geometry">
            <mxPoint as="offset" />
          </mxGeometry>
        </mxCell>
        <mxCell id="4ijnzWLCs2FJMQsc7-n7-34" style="edgeStyle=orthogonalEdgeStyle;rounded=0;orthogonalLoop=1;jettySize=auto;html=1;exitX=1;exitY=1;exitDx=0;exitDy=0;entryX=0.5;entryY=0;entryDx=0;entryDy=0;" edge="1" parent="1" source="4ijnzWLCs2FJMQsc7-n7-27" target="4ijnzWLCs2FJMQsc7-n7-30">
          <mxGeometry relative="1" as="geometry" />
        </mxCell>
        <mxCell id="4ijnzWLCs2FJMQsc7-n7-42" value="View week passes" style="edgeLabel;html=1;align=center;verticalAlign=middle;resizable=0;points=[];" vertex="1" connectable="0" parent="4ijnzWLCs2FJMQsc7-n7-34">
          <mxGeometry x="0.1127" y="-1" relative="1" as="geometry">
            <mxPoint as="offset" />
          </mxGeometry>
        </mxCell>
        <mxCell id="4ijnzWLCs2FJMQsc7-n7-35" style="edgeStyle=orthogonalEdgeStyle;rounded=0;orthogonalLoop=1;jettySize=auto;html=1;exitX=0.5;exitY=1;exitDx=0;exitDy=0;entryX=0.5;entryY=0;entryDx=0;entryDy=0;" edge="1" parent="1" source="4ijnzWLCs2FJMQsc7-n7-27" target="4ijnzWLCs2FJMQsc7-n7-29">
          <mxGeometry relative="1" as="geometry" />
        </mxCell>
        <mxCell id="4ijnzWLCs2FJMQsc7-n7-41" value="view day pases" style="edgeLabel;html=1;align=center;verticalAlign=middle;resizable=0;points=[];" vertex="1" connectable="0" parent="4ijnzWLCs2FJMQsc7-n7-35">
          <mxGeometry x="-0.4933" y="-1" relative="1" as="geometry">
            <mxPoint as="offset" />
          </mxGeometry>
        </mxCell>
        <mxCell id="4ijnzWLCs2FJMQsc7-n7-27" value="Options" style="html=1;align=center;verticalAlign=top;rounded=1;absoluteArcSize=1;arcSize=10;dashed=0;whiteSpace=wrap;" vertex="1" parent="1">
          <mxGeometry x="365" y="790" width="70" height="30" as="geometry" />
        </mxCell>
        <mxCell id="4ijnzWLCs2FJMQsc7-n7-37" style="edgeStyle=orthogonalEdgeStyle;rounded=0;orthogonalLoop=1;jettySize=auto;html=1;exitX=0.5;exitY=1;exitDx=0;exitDy=0;entryX=0;entryY=0.5;entryDx=0;entryDy=0;" edge="1" parent="1" source="4ijnzWLCs2FJMQsc7-n7-28" target="4ijnzWLCs2FJMQsc7-n7-36">
          <mxGeometry relative="1" as="geometry" />
        </mxCell>
        <mxCell id="4ijnzWLCs2FJMQsc7-n7-28" value="SingleRide" style="html=1;align=center;verticalAlign=top;rounded=1;absoluteArcSize=1;arcSize=10;dashed=0;whiteSpace=wrap;" vertex="1" parent="1">
          <mxGeometry x="210" y="880" width="82" height="30" as="geometry" />
        </mxCell>
        <mxCell id="4ijnzWLCs2FJMQsc7-n7-38" style="edgeStyle=orthogonalEdgeStyle;rounded=0;orthogonalLoop=1;jettySize=auto;html=1;exitX=0.5;exitY=1;exitDx=0;exitDy=0;entryX=0.5;entryY=0;entryDx=0;entryDy=0;" edge="1" parent="1" source="4ijnzWLCs2FJMQsc7-n7-29" target="4ijnzWLCs2FJMQsc7-n7-36">
          <mxGeometry relative="1" as="geometry" />
        </mxCell>
        <mxCell id="4ijnzWLCs2FJMQsc7-n7-29" value="DayPass" style="html=1;align=center;verticalAlign=top;rounded=1;absoluteArcSize=1;arcSize=10;dashed=0;whiteSpace=wrap;" vertex="1" parent="1">
          <mxGeometry x="360" y="880" width="80" height="30" as="geometry" />
        </mxCell>
        <mxCell id="4ijnzWLCs2FJMQsc7-n7-39" style="edgeStyle=orthogonalEdgeStyle;rounded=0;orthogonalLoop=1;jettySize=auto;html=1;exitX=0.5;exitY=1;exitDx=0;exitDy=0;entryX=1;entryY=0.5;entryDx=0;entryDy=0;" edge="1" parent="1" source="4ijnzWLCs2FJMQsc7-n7-30" target="4ijnzWLCs2FJMQsc7-n7-36">
          <mxGeometry relative="1" as="geometry" />
        </mxCell>
        <mxCell id="4ijnzWLCs2FJMQsc7-n7-30" value="WeekPass" style="html=1;align=center;verticalAlign=top;rounded=1;absoluteArcSize=1;arcSize=10;dashed=0;whiteSpace=wrap;" vertex="1" parent="1">
          <mxGeometry x="500" y="880" width="80" height="30" as="geometry" />
        </mxCell>
        <mxCell id="4ijnzWLCs2FJMQsc7-n7-36" value="" style="ellipse;html=1;shape=endState;fillColor=strokeColor;" vertex="1" parent="1">
          <mxGeometry x="385" y="960" width="30" height="30" as="geometry" />
        </mxCell>
        <mxCell id="4ijnzWLCs2FJMQsc7-n7-74" style="edgeStyle=orthogonalEdgeStyle;rounded=0;orthogonalLoop=1;jettySize=auto;html=1;exitX=0.25;exitY=1;exitDx=0;exitDy=0;exitPerimeter=0;entryX=0.25;entryY=0;entryDx=0;entryDy=0;" edge="1" parent="1" source="4ijnzWLCs2FJMQsc7-n7-43" target="4ijnzWLCs2FJMQsc7-n7-71">
          <mxGeometry relative="1" as="geometry" />
        </mxCell>
        <mxCell id="4ijnzWLCs2FJMQsc7-n7-76" value="Payment failed" style="edgeLabel;html=1;align=center;verticalAlign=middle;resizable=0;points=[];" vertex="1" connectable="0" parent="4ijnzWLCs2FJMQsc7-n7-74">
          <mxGeometry x="-0.5688" y="-2" relative="1" as="geometry">
            <mxPoint as="offset" />
          </mxGeometry>
        </mxCell>
        <mxCell id="4ijnzWLCs2FJMQsc7-n7-75" style="edgeStyle=orthogonalEdgeStyle;rounded=0;orthogonalLoop=1;jettySize=auto;html=1;exitX=0.75;exitY=1;exitDx=0;exitDy=0;exitPerimeter=0;entryX=0.5;entryY=0;entryDx=0;entryDy=0;" edge="1" parent="1" source="4ijnzWLCs2FJMQsc7-n7-43" target="4ijnzWLCs2FJMQsc7-n7-72">
          <mxGeometry relative="1" as="geometry" />
        </mxCell>
        <mxCell id="4ijnzWLCs2FJMQsc7-n7-78" value="Payment successful" style="edgeLabel;html=1;align=center;verticalAlign=middle;resizable=0;points=[];" vertex="1" connectable="0" parent="4ijnzWLCs2FJMQsc7-n7-75">
          <mxGeometry x="-0.1916" y="1" relative="1" as="geometry">
            <mxPoint as="offset" />
          </mxGeometry>
        </mxCell>
        <mxCell id="4ijnzWLCs2FJMQsc7-n7-43" value="Payment" style="shape=folder;align=center;verticalAlign=middle;fontStyle=0;tabWidth=100;tabHeight=30;tabPosition=left;html=1;boundedLbl=1;labelInHeader=1;rounded=1;absoluteArcSize=1;arcSize=10;whiteSpace=wrap;" vertex="1" parent="1">
          <mxGeometry x="141" y="1300" width="508" height="470" as="geometry" />
        </mxCell>
        <mxCell id="4ijnzWLCs2FJMQsc7-n7-48" style="edgeStyle=orthogonalEdgeStyle;rounded=0;orthogonalLoop=1;jettySize=auto;html=1;exitX=0.5;exitY=1;exitDx=0;exitDy=0;entryX=0.5;entryY=0;entryDx=0;entryDy=0;" edge="1" parent="1" source="4ijnzWLCs2FJMQsc7-n7-44" target="4ijnzWLCs2FJMQsc7-n7-45">
          <mxGeometry relative="1" as="geometry" />
        </mxCell>
        <mxCell id="4ijnzWLCs2FJMQsc7-n7-49" value="Choose week pass" style="edgeLabel;html=1;align=center;verticalAlign=middle;resizable=0;points=[];" vertex="1" connectable="0" parent="4ijnzWLCs2FJMQsc7-n7-48">
          <mxGeometry x="-0.2541" y="-2" relative="1" as="geometry">
            <mxPoint as="offset" />
          </mxGeometry>
        </mxCell>
        <mxCell id="4ijnzWLCs2FJMQsc7-n7-44" value="Compare" style="html=1;align=center;verticalAlign=top;rounded=1;absoluteArcSize=1;arcSize=10;dashed=0;whiteSpace=wrap;" vertex="1" parent="1">
          <mxGeometry x="350" y="1139" width="100" height="30" as="geometry" />
        </mxCell>
        <mxCell id="4ijnzWLCs2FJMQsc7-n7-45" value="Select" style="html=1;align=center;verticalAlign=top;rounded=1;absoluteArcSize=1;arcSize=10;dashed=0;whiteSpace=wrap;" vertex="1" parent="1">
          <mxGeometry x="350" y="1240" width="100" height="30" as="geometry" />
        </mxCell>
        <mxCell id="4ijnzWLCs2FJMQsc7-n7-50" style="edgeStyle=orthogonalEdgeStyle;rounded=0;orthogonalLoop=1;jettySize=auto;html=1;exitX=0.5;exitY=1;exitDx=0;exitDy=0;entryX=0.51;entryY=0.064;entryDx=0;entryDy=0;entryPerimeter=0;" edge="1" parent="1" source="4ijnzWLCs2FJMQsc7-n7-45" target="4ijnzWLCs2FJMQsc7-n7-43">
          <mxGeometry relative="1" as="geometry" />
        </mxCell>
        <mxCell id="4ijnzWLCs2FJMQsc7-n7-56" style="edgeStyle=orthogonalEdgeStyle;rounded=0;orthogonalLoop=1;jettySize=auto;html=1;exitX=0.5;exitY=1;exitDx=0;exitDy=0;entryX=0.5;entryY=0;entryDx=0;entryDy=0;" edge="1" parent="1" source="4ijnzWLCs2FJMQsc7-n7-51" target="4ijnzWLCs2FJMQsc7-n7-52">
          <mxGeometry relative="1" as="geometry" />
        </mxCell>
        <mxCell id="4ijnzWLCs2FJMQsc7-n7-57" value="Choose payment methods" style="edgeLabel;html=1;align=center;verticalAlign=middle;resizable=0;points=[];" vertex="1" connectable="0" parent="4ijnzWLCs2FJMQsc7-n7-56">
          <mxGeometry x="-0.0511" relative="1" as="geometry">
            <mxPoint as="offset" />
          </mxGeometry>
        </mxCell>
        <mxCell id="4ijnzWLCs2FJMQsc7-n7-51" value="" style="ellipse;fillColor=strokeColor;html=1;" vertex="1" parent="1">
          <mxGeometry x="384" y="1350" width="30" height="30" as="geometry" />
        </mxCell>
        <mxCell id="4ijnzWLCs2FJMQsc7-n7-58" style="edgeStyle=orthogonalEdgeStyle;rounded=0;orthogonalLoop=1;jettySize=auto;html=1;exitX=0;exitY=1;exitDx=0;exitDy=0;entryX=0.5;entryY=0;entryDx=0;entryDy=0;" edge="1" parent="1" source="4ijnzWLCs2FJMQsc7-n7-52" target="4ijnzWLCs2FJMQsc7-n7-53">
          <mxGeometry relative="1" as="geometry" />
        </mxCell>
        <mxCell id="4ijnzWLCs2FJMQsc7-n7-59" value="Submit payment" style="edgeLabel;html=1;align=center;verticalAlign=middle;resizable=0;points=[];" vertex="1" connectable="0" parent="4ijnzWLCs2FJMQsc7-n7-58">
          <mxGeometry x="-0.1172" y="-2" relative="1" as="geometry">
            <mxPoint as="offset" />
          </mxGeometry>
        </mxCell>
        <mxCell id="4ijnzWLCs2FJMQsc7-n7-52" value="MethodSelection" style="html=1;align=center;verticalAlign=top;rounded=1;absoluteArcSize=1;arcSize=10;dashed=0;whiteSpace=wrap;" vertex="1" parent="1">
          <mxGeometry x="340" y="1420" width="120" height="30" as="geometry" />
        </mxCell>
        <mxCell id="4ijnzWLCs2FJMQsc7-n7-60" style="edgeStyle=orthogonalEdgeStyle;rounded=0;orthogonalLoop=1;jettySize=auto;html=1;exitX=0.5;exitY=1;exitDx=0;exitDy=0;entryX=0.5;entryY=0;entryDx=0;entryDy=0;" edge="1" parent="1" source="4ijnzWLCs2FJMQsc7-n7-53" target="4ijnzWLCs2FJMQsc7-n7-54">
          <mxGeometry relative="1" as="geometry" />
        </mxCell>
        <mxCell id="4ijnzWLCs2FJMQsc7-n7-67" value="Approved" style="edgeLabel;html=1;align=center;verticalAlign=middle;resizable=0;points=[];" vertex="1" connectable="0" parent="4ijnzWLCs2FJMQsc7-n7-60">
          <mxGeometry x="0.3223" y="3" relative="1" as="geometry">
            <mxPoint as="offset" />
          </mxGeometry>
        </mxCell>
        <mxCell id="4ijnzWLCs2FJMQsc7-n7-61" style="edgeStyle=orthogonalEdgeStyle;rounded=0;orthogonalLoop=1;jettySize=auto;html=1;exitX=1;exitY=1;exitDx=0;exitDy=0;entryX=0;entryY=0.5;entryDx=0;entryDy=0;" edge="1" parent="1" source="4ijnzWLCs2FJMQsc7-n7-53" target="4ijnzWLCs2FJMQsc7-n7-55">
          <mxGeometry relative="1" as="geometry" />
        </mxCell>
        <mxCell id="4ijnzWLCs2FJMQsc7-n7-66" value="Declined" style="edgeLabel;html=1;align=center;verticalAlign=middle;resizable=0;points=[];" vertex="1" connectable="0" parent="4ijnzWLCs2FJMQsc7-n7-61">
          <mxGeometry x="-0.1451" relative="1" as="geometry">
            <mxPoint as="offset" />
          </mxGeometry>
        </mxCell>
        <mxCell id="4ijnzWLCs2FJMQsc7-n7-53" value="Processing" style="html=1;align=center;verticalAlign=top;rounded=1;absoluteArcSize=1;arcSize=10;dashed=0;whiteSpace=wrap;" vertex="1" parent="1">
          <mxGeometry x="255" y="1510" width="95" height="30" as="geometry" />
        </mxCell>
        <mxCell id="4ijnzWLCs2FJMQsc7-n7-64" style="edgeStyle=orthogonalEdgeStyle;rounded=0;orthogonalLoop=1;jettySize=auto;html=1;exitX=0.5;exitY=1;exitDx=0;exitDy=0;entryX=0.5;entryY=0;entryDx=0;entryDy=0;" edge="1" parent="1" source="4ijnzWLCs2FJMQsc7-n7-54" target="4ijnzWLCs2FJMQsc7-n7-63">
          <mxGeometry relative="1" as="geometry" />
        </mxCell>
        <mxCell id="4ijnzWLCs2FJMQsc7-n7-54" value="Success" style="html=1;align=center;verticalAlign=top;rounded=1;absoluteArcSize=1;arcSize=10;dashed=0;whiteSpace=wrap;" vertex="1" parent="1">
          <mxGeometry x="240" y="1610" width="90" height="30" as="geometry" />
        </mxCell>
        <mxCell id="4ijnzWLCs2FJMQsc7-n7-62" style="edgeStyle=orthogonalEdgeStyle;rounded=0;orthogonalLoop=1;jettySize=auto;html=1;exitX=0.5;exitY=0;exitDx=0;exitDy=0;entryX=0.75;entryY=1;entryDx=0;entryDy=0;" edge="1" parent="1" source="4ijnzWLCs2FJMQsc7-n7-55" target="4ijnzWLCs2FJMQsc7-n7-52">
          <mxGeometry relative="1" as="geometry" />
        </mxCell>
        <mxCell id="4ijnzWLCs2FJMQsc7-n7-65" value="Try again" style="edgeLabel;html=1;align=center;verticalAlign=middle;resizable=0;points=[];" vertex="1" connectable="0" parent="4ijnzWLCs2FJMQsc7-n7-62">
          <mxGeometry x="-0.0508" y="1" relative="1" as="geometry">
            <mxPoint as="offset" />
          </mxGeometry>
        </mxCell>
        <mxCell id="4ijnzWLCs2FJMQsc7-n7-55" value="Failure" style="html=1;align=center;verticalAlign=top;rounded=1;absoluteArcSize=1;arcSize=10;dashed=0;whiteSpace=wrap;" vertex="1" parent="1">
          <mxGeometry x="470" y="1550" width="80" height="30" as="geometry" />
        </mxCell>
        <mxCell id="4ijnzWLCs2FJMQsc7-n7-63" value="" style="ellipse;html=1;shape=endState;fillColor=strokeColor;" vertex="1" parent="1">
          <mxGeometry x="270" y="1700" width="30" height="30" as="geometry" />
        </mxCell>
        <mxCell id="4ijnzWLCs2FJMQsc7-n7-68" value="UsePass" style="shape=folder;align=center;verticalAlign=middle;fontStyle=0;tabWidth=100;tabHeight=30;tabPosition=left;html=1;boundedLbl=1;labelInHeader=1;rounded=1;absoluteArcSize=1;arcSize=10;whiteSpace=wrap;" vertex="1" parent="1">
          <mxGeometry x="-320" y="1990" width="360" height="560" as="geometry" />
        </mxCell>
        <mxCell id="4ijnzWLCs2FJMQsc7-n7-69" value="ManagePass" style="shape=folder;align=center;verticalAlign=middle;fontStyle=0;tabWidth=100;tabHeight=30;tabPosition=left;html=1;boundedLbl=1;labelInHeader=1;rounded=1;absoluteArcSize=1;arcSize=10;whiteSpace=wrap;" vertex="1" parent="1">
          <mxGeometry x="177.5" y="2040" width="462.5" height="410" as="geometry" />
        </mxCell>
        <mxCell id="4ijnzWLCs2FJMQsc7-n7-83" style="edgeStyle=orthogonalEdgeStyle;rounded=0;orthogonalLoop=1;jettySize=auto;html=1;exitX=0;exitY=0;exitDx=290;exitDy=30;exitPerimeter=0;entryX=1;entryY=0.5;entryDx=0;entryDy=0;" edge="1" parent="1" source="4ijnzWLCs2FJMQsc7-n7-70" target="4ijnzWLCs2FJMQsc7-n7-72">
          <mxGeometry relative="1" as="geometry">
            <Array as="points">
              <mxPoint x="1010" y="1905" />
            </Array>
          </mxGeometry>
        </mxCell>
        <mxCell id="4ijnzWLCs2FJMQsc7-n7-148" value="View notification" style="edgeLabel;html=1;align=center;verticalAlign=middle;resizable=0;points=[];" vertex="1" connectable="0" parent="4ijnzWLCs2FJMQsc7-n7-83">
          <mxGeometry x="-0.5912" y="-1" relative="1" as="geometry">
            <mxPoint as="offset" />
          </mxGeometry>
        </mxCell>
        <mxCell id="4ijnzWLCs2FJMQsc7-n7-70" value="Notifications" style="shape=folder;align=center;verticalAlign=middle;fontStyle=0;tabWidth=100;tabHeight=30;tabPosition=left;html=1;boundedLbl=1;labelInHeader=1;rounded=1;absoluteArcSize=1;arcSize=10;whiteSpace=wrap;" vertex="1" parent="1">
          <mxGeometry x="720" y="2040" width="480" height="410" as="geometry" />
        </mxCell>
        <mxCell id="4ijnzWLCs2FJMQsc7-n7-71" value="Error" style="html=1;align=center;verticalAlign=top;rounded=1;absoluteArcSize=1;arcSize=10;dashed=0;whiteSpace=wrap;" vertex="1" parent="1">
          <mxGeometry x="275" y="1870" width="70" height="30" as="geometry" />
        </mxCell>
        <mxCell id="4ijnzWLCs2FJMQsc7-n7-72" value="PassIssued" style="html=1;align=center;verticalAlign=top;rounded=1;absoluteArcSize=1;arcSize=10;dashed=0;whiteSpace=wrap;" vertex="1" parent="1">
          <mxGeometry x="480" y="1890" width="90" height="30" as="geometry" />
        </mxCell>
        <mxCell id="4ijnzWLCs2FJMQsc7-n7-73" style="edgeStyle=orthogonalEdgeStyle;rounded=0;orthogonalLoop=1;jettySize=auto;html=1;exitX=1;exitY=0;exitDx=0;exitDy=0;entryX=0.425;entryY=1.004;entryDx=0;entryDy=0;entryPerimeter=0;" edge="1" parent="1" source="4ijnzWLCs2FJMQsc7-n7-71" target="4ijnzWLCs2FJMQsc7-n7-43">
          <mxGeometry relative="1" as="geometry" />
        </mxCell>
        <mxCell id="4ijnzWLCs2FJMQsc7-n7-77" value="Retry" style="edgeLabel;html=1;align=center;verticalAlign=middle;resizable=0;points=[];" vertex="1" connectable="0" parent="4ijnzWLCs2FJMQsc7-n7-73">
          <mxGeometry x="0.6237" y="1" relative="1" as="geometry">
            <mxPoint y="-1" as="offset" />
          </mxGeometry>
        </mxCell>
        <mxCell id="4ijnzWLCs2FJMQsc7-n7-79" style="edgeStyle=orthogonalEdgeStyle;rounded=0;orthogonalLoop=1;jettySize=auto;html=1;exitX=0;exitY=1;exitDx=0;exitDy=0;entryX=0.44;entryY=0.07;entryDx=0;entryDy=0;entryPerimeter=0;" edge="1" parent="1" source="4ijnzWLCs2FJMQsc7-n7-72" target="4ijnzWLCs2FJMQsc7-n7-69">
          <mxGeometry relative="1" as="geometry" />
        </mxCell>
        <mxCell id="4ijnzWLCs2FJMQsc7-n7-80" value="Manage pass options" style="edgeLabel;html=1;align=center;verticalAlign=middle;resizable=0;points=[];" vertex="1" connectable="0" parent="4ijnzWLCs2FJMQsc7-n7-79">
          <mxGeometry x="-0.068" relative="1" as="geometry">
            <mxPoint as="offset" />
          </mxGeometry>
        </mxCell>
        <mxCell id="4ijnzWLCs2FJMQsc7-n7-81" style="edgeStyle=orthogonalEdgeStyle;rounded=0;orthogonalLoop=1;jettySize=auto;html=1;exitX=0;exitY=0.5;exitDx=0;exitDy=0;entryX=0.5;entryY=0.05;entryDx=0;entryDy=0;entryPerimeter=0;" edge="1" parent="1" source="4ijnzWLCs2FJMQsc7-n7-72" target="4ijnzWLCs2FJMQsc7-n7-68">
          <mxGeometry relative="1" as="geometry" />
        </mxCell>
        <mxCell id="4ijnzWLCs2FJMQsc7-n7-146" value="Validate on transport" style="edgeLabel;html=1;align=center;verticalAlign=middle;resizable=0;points=[];" vertex="1" connectable="0" parent="4ijnzWLCs2FJMQsc7-n7-81">
          <mxGeometry x="0.3992" y="-1" relative="1" as="geometry">
            <mxPoint x="1" as="offset" />
          </mxGeometry>
        </mxCell>
        <mxCell id="4ijnzWLCs2FJMQsc7-n7-82" style="edgeStyle=orthogonalEdgeStyle;rounded=0;orthogonalLoop=1;jettySize=auto;html=1;exitX=1;exitY=0.75;exitDx=0;exitDy=0;entryX=0.379;entryY=0.089;entryDx=0;entryDy=0;entryPerimeter=0;" edge="1" parent="1" source="4ijnzWLCs2FJMQsc7-n7-72" target="4ijnzWLCs2FJMQsc7-n7-70">
          <mxGeometry relative="1" as="geometry" />
        </mxCell>
        <mxCell id="4ijnzWLCs2FJMQsc7-n7-147" value="System alerts" style="edgeLabel;html=1;align=center;verticalAlign=middle;resizable=0;points=[];" vertex="1" connectable="0" parent="4ijnzWLCs2FJMQsc7-n7-82">
          <mxGeometry x="0.6256" y="3" relative="1" as="geometry">
            <mxPoint as="offset" />
          </mxGeometry>
        </mxCell>
        <mxCell id="4ijnzWLCs2FJMQsc7-n7-90" style="edgeStyle=orthogonalEdgeStyle;rounded=0;orthogonalLoop=1;jettySize=auto;html=1;exitX=0.5;exitY=1;exitDx=0;exitDy=0;entryX=0.5;entryY=0;entryDx=0;entryDy=0;" edge="1" parent="1" source="4ijnzWLCs2FJMQsc7-n7-84" target="4ijnzWLCs2FJMQsc7-n7-85">
          <mxGeometry relative="1" as="geometry" />
        </mxCell>
        <mxCell id="4ijnzWLCs2FJMQsc7-n7-97" value="Prepare for validation" style="edgeLabel;html=1;align=center;verticalAlign=middle;resizable=0;points=[];" vertex="1" connectable="0" parent="4ijnzWLCs2FJMQsc7-n7-90">
          <mxGeometry x="-0.0438" y="-1" relative="1" as="geometry">
            <mxPoint as="offset" />
          </mxGeometry>
        </mxCell>
        <mxCell id="4ijnzWLCs2FJMQsc7-n7-84" value="" style="ellipse;fillColor=strokeColor;html=1;" vertex="1" parent="1">
          <mxGeometry x="-155" y="2040" width="30" height="30" as="geometry" />
        </mxCell>
        <mxCell id="4ijnzWLCs2FJMQsc7-n7-91" style="edgeStyle=orthogonalEdgeStyle;rounded=0;orthogonalLoop=1;jettySize=auto;html=1;exitX=0.25;exitY=1;exitDx=0;exitDy=0;entryX=0.5;entryY=0;entryDx=0;entryDy=0;" edge="1" parent="1" source="4ijnzWLCs2FJMQsc7-n7-85" target="4ijnzWLCs2FJMQsc7-n7-86">
          <mxGeometry relative="1" as="geometry" />
        </mxCell>
        <mxCell id="4ijnzWLCs2FJMQsc7-n7-98" value="At validator" style="edgeLabel;html=1;align=center;verticalAlign=middle;resizable=0;points=[];" vertex="1" connectable="0" parent="4ijnzWLCs2FJMQsc7-n7-91">
          <mxGeometry x="-0.1192" y="2" relative="1" as="geometry">
            <mxPoint as="offset" />
          </mxGeometry>
        </mxCell>
        <mxCell id="4ijnzWLCs2FJMQsc7-n7-85" value="ActivatePass" style="html=1;align=center;verticalAlign=top;rounded=1;absoluteArcSize=1;arcSize=10;dashed=0;whiteSpace=wrap;" vertex="1" parent="1">
          <mxGeometry x="-185" y="2120" width="90" height="30" as="geometry" />
        </mxCell>
        <mxCell id="4ijnzWLCs2FJMQsc7-n7-93" style="edgeStyle=orthogonalEdgeStyle;rounded=0;orthogonalLoop=1;jettySize=auto;html=1;exitX=1;exitY=1;exitDx=0;exitDy=0;entryX=0.5;entryY=0;entryDx=0;entryDy=0;" edge="1" parent="1" source="4ijnzWLCs2FJMQsc7-n7-86" target="4ijnzWLCs2FJMQsc7-n7-88">
          <mxGeometry relative="1" as="geometry" />
        </mxCell>
        <mxCell id="4ijnzWLCs2FJMQsc7-n7-100" value="Invalid" style="edgeLabel;html=1;align=center;verticalAlign=middle;resizable=0;points=[];" vertex="1" connectable="0" parent="4ijnzWLCs2FJMQsc7-n7-93">
          <mxGeometry x="-0.0712" relative="1" as="geometry">
            <mxPoint as="offset" />
          </mxGeometry>
        </mxCell>
        <mxCell id="4ijnzWLCs2FJMQsc7-n7-86" value="ScanPass" style="html=1;align=center;verticalAlign=top;rounded=1;absoluteArcSize=1;arcSize=10;dashed=0;whiteSpace=wrap;" vertex="1" parent="1">
          <mxGeometry x="-270" y="2200" width="80" height="30" as="geometry" />
        </mxCell>
        <mxCell id="4ijnzWLCs2FJMQsc7-n7-95" style="edgeStyle=orthogonalEdgeStyle;rounded=0;orthogonalLoop=1;jettySize=auto;html=1;exitX=0.5;exitY=1;exitDx=0;exitDy=0;entryX=0.5;entryY=0;entryDx=0;entryDy=0;" edge="1" parent="1" source="4ijnzWLCs2FJMQsc7-n7-87" target="4ijnzWLCs2FJMQsc7-n7-89">
          <mxGeometry relative="1" as="geometry" />
        </mxCell>
        <mxCell id="4ijnzWLCs2FJMQsc7-n7-102" value="Travel" style="edgeLabel;html=1;align=center;verticalAlign=middle;resizable=0;points=[];" vertex="1" connectable="0" parent="4ijnzWLCs2FJMQsc7-n7-95">
          <mxGeometry x="-0.0585" y="-1" relative="1" as="geometry">
            <mxPoint as="offset" />
          </mxGeometry>
        </mxCell>
        <mxCell id="4ijnzWLCs2FJMQsc7-n7-87" value="ValidationSuccess" style="html=1;align=center;verticalAlign=top;rounded=1;absoluteArcSize=1;arcSize=10;dashed=0;whiteSpace=wrap;" vertex="1" parent="1">
          <mxGeometry x="-280" y="2290" width="120" height="30" as="geometry" />
        </mxCell>
        <mxCell id="4ijnzWLCs2FJMQsc7-n7-94" style="edgeStyle=orthogonalEdgeStyle;rounded=0;orthogonalLoop=1;jettySize=auto;html=1;exitX=0.75;exitY=0;exitDx=0;exitDy=0;entryX=1;entryY=0.5;entryDx=0;entryDy=0;" edge="1" parent="1" source="4ijnzWLCs2FJMQsc7-n7-88" target="4ijnzWLCs2FJMQsc7-n7-85">
          <mxGeometry relative="1" as="geometry" />
        </mxCell>
        <mxCell id="4ijnzWLCs2FJMQsc7-n7-99" value="Retry" style="edgeLabel;html=1;align=center;verticalAlign=middle;resizable=0;points=[];" vertex="1" connectable="0" parent="4ijnzWLCs2FJMQsc7-n7-94">
          <mxGeometry x="-0.177" y="2" relative="1" as="geometry">
            <mxPoint as="offset" />
          </mxGeometry>
        </mxCell>
        <mxCell id="4ijnzWLCs2FJMQsc7-n7-88" value="ValidationFailed" style="html=1;align=center;verticalAlign=top;rounded=1;absoluteArcSize=1;arcSize=10;dashed=0;whiteSpace=wrap;" vertex="1" parent="1">
          <mxGeometry x="-110" y="2278" width="105" height="32" as="geometry" />
        </mxCell>
        <mxCell id="4ijnzWLCs2FJMQsc7-n7-103" style="edgeStyle=orthogonalEdgeStyle;rounded=0;orthogonalLoop=1;jettySize=auto;html=1;exitX=0.5;exitY=1;exitDx=0;exitDy=0;entryX=0.5;entryY=0;entryDx=0;entryDy=0;" edge="1" parent="1" source="4ijnzWLCs2FJMQsc7-n7-89" target="4ijnzWLCs2FJMQsc7-n7-96">
          <mxGeometry relative="1" as="geometry" />
        </mxCell>
        <mxCell id="4ijnzWLCs2FJMQsc7-n7-89" value="Transit" style="html=1;align=center;verticalAlign=top;rounded=1;absoluteArcSize=1;arcSize=10;dashed=0;whiteSpace=wrap;" vertex="1" parent="1">
          <mxGeometry x="-255" y="2390" width="70" height="30" as="geometry" />
        </mxCell>
        <mxCell id="4ijnzWLCs2FJMQsc7-n7-92" style="edgeStyle=orthogonalEdgeStyle;rounded=0;orthogonalLoop=1;jettySize=auto;html=1;exitX=0.5;exitY=1;exitDx=0;exitDy=0;entryX=0.42;entryY=0.016;entryDx=0;entryDy=0;entryPerimeter=0;" edge="1" parent="1" source="4ijnzWLCs2FJMQsc7-n7-86" target="4ijnzWLCs2FJMQsc7-n7-87">
          <mxGeometry relative="1" as="geometry" />
        </mxCell>
        <mxCell id="4ijnzWLCs2FJMQsc7-n7-101" value="Valid" style="edgeLabel;html=1;align=center;verticalAlign=middle;resizable=0;points=[];" vertex="1" connectable="0" parent="4ijnzWLCs2FJMQsc7-n7-92">
          <mxGeometry x="-0.1831" y="1" relative="1" as="geometry">
            <mxPoint as="offset" />
          </mxGeometry>
        </mxCell>
        <mxCell id="4ijnzWLCs2FJMQsc7-n7-96" value="" style="ellipse;html=1;shape=endState;fillColor=strokeColor;" vertex="1" parent="1">
          <mxGeometry x="-235" y="2460" width="30" height="30" as="geometry" />
        </mxCell>
        <mxCell id="4ijnzWLCs2FJMQsc7-n7-109" style="edgeStyle=orthogonalEdgeStyle;rounded=0;orthogonalLoop=1;jettySize=auto;html=1;exitX=0.5;exitY=1;exitDx=0;exitDy=0;entryX=0.5;entryY=0;entryDx=0;entryDy=0;" edge="1" parent="1" source="4ijnzWLCs2FJMQsc7-n7-104" target="4ijnzWLCs2FJMQsc7-n7-105">
          <mxGeometry relative="1" as="geometry" />
        </mxCell>
        <mxCell id="4ijnzWLCs2FJMQsc7-n7-110" value="View managment options" style="edgeLabel;html=1;align=center;verticalAlign=middle;resizable=0;points=[];" vertex="1" connectable="0" parent="4ijnzWLCs2FJMQsc7-n7-109">
          <mxGeometry x="-0.1532" y="-1" relative="1" as="geometry">
            <mxPoint as="offset" />
          </mxGeometry>
        </mxCell>
        <mxCell id="4ijnzWLCs2FJMQsc7-n7-104" value="" style="ellipse;fillColor=strokeColor;html=1;" vertex="1" parent="1">
          <mxGeometry x="399" y="2090" width="30" height="30" as="geometry" />
        </mxCell>
        <mxCell id="4ijnzWLCs2FJMQsc7-n7-111" style="edgeStyle=orthogonalEdgeStyle;rounded=0;orthogonalLoop=1;jettySize=auto;html=1;exitX=0;exitY=0.5;exitDx=0;exitDy=0;entryX=0.5;entryY=0;entryDx=0;entryDy=0;" edge="1" parent="1" source="4ijnzWLCs2FJMQsc7-n7-105" target="4ijnzWLCs2FJMQsc7-n7-106">
          <mxGeometry relative="1" as="geometry" />
        </mxCell>
        <mxCell id="4ijnzWLCs2FJMQsc7-n7-118" value="Duration option" style="edgeLabel;html=1;align=center;verticalAlign=middle;resizable=0;points=[];" vertex="1" connectable="0" parent="4ijnzWLCs2FJMQsc7-n7-111">
          <mxGeometry x="0.5421" y="-1" relative="1" as="geometry">
            <mxPoint as="offset" />
          </mxGeometry>
        </mxCell>
        <mxCell id="4ijnzWLCs2FJMQsc7-n7-112" style="edgeStyle=orthogonalEdgeStyle;rounded=0;orthogonalLoop=1;jettySize=auto;html=1;exitX=1;exitY=0.5;exitDx=0;exitDy=0;entryX=0.5;entryY=0;entryDx=0;entryDy=0;" edge="1" parent="1" source="4ijnzWLCs2FJMQsc7-n7-105" target="4ijnzWLCs2FJMQsc7-n7-108">
          <mxGeometry relative="1" as="geometry" />
        </mxCell>
        <mxCell id="4ijnzWLCs2FJMQsc7-n7-120" value="Usage stats option" style="edgeLabel;html=1;align=center;verticalAlign=middle;resizable=0;points=[];" vertex="1" connectable="0" parent="4ijnzWLCs2FJMQsc7-n7-112">
          <mxGeometry x="0.6546" y="2" relative="1" as="geometry">
            <mxPoint as="offset" />
          </mxGeometry>
        </mxCell>
        <mxCell id="4ijnzWLCs2FJMQsc7-n7-113" style="edgeStyle=orthogonalEdgeStyle;rounded=0;orthogonalLoop=1;jettySize=auto;html=1;exitX=0.5;exitY=1;exitDx=0;exitDy=0;entryX=0.5;entryY=0;entryDx=0;entryDy=0;" edge="1" parent="1" source="4ijnzWLCs2FJMQsc7-n7-105" target="4ijnzWLCs2FJMQsc7-n7-107">
          <mxGeometry relative="1" as="geometry" />
        </mxCell>
        <mxCell id="4ijnzWLCs2FJMQsc7-n7-119" value="Change type option" style="edgeLabel;html=1;align=center;verticalAlign=middle;resizable=0;points=[];" vertex="1" connectable="0" parent="4ijnzWLCs2FJMQsc7-n7-113">
          <mxGeometry x="-0.3298" relative="1" as="geometry">
            <mxPoint as="offset" />
          </mxGeometry>
        </mxCell>
        <mxCell id="4ijnzWLCs2FJMQsc7-n7-105" value="PassOptions" style="html=1;align=center;verticalAlign=top;rounded=1;absoluteArcSize=1;arcSize=10;dashed=0;whiteSpace=wrap;" vertex="1" parent="1">
          <mxGeometry x="365" y="2180" width="105" height="30" as="geometry" />
        </mxCell>
        <mxCell id="4ijnzWLCs2FJMQsc7-n7-115" style="edgeStyle=orthogonalEdgeStyle;rounded=0;orthogonalLoop=1;jettySize=auto;html=1;exitX=0.5;exitY=1;exitDx=0;exitDy=0;entryX=0;entryY=0.5;entryDx=0;entryDy=0;" edge="1" parent="1" source="4ijnzWLCs2FJMQsc7-n7-106" target="4ijnzWLCs2FJMQsc7-n7-114">
          <mxGeometry relative="1" as="geometry" />
        </mxCell>
        <mxCell id="4ijnzWLCs2FJMQsc7-n7-106" value="Extend" style="html=1;align=center;verticalAlign=top;rounded=1;absoluteArcSize=1;arcSize=10;dashed=0;whiteSpace=wrap;" vertex="1" parent="1">
          <mxGeometry x="227.5" y="2265" width="90" height="25" as="geometry" />
        </mxCell>
        <mxCell id="4ijnzWLCs2FJMQsc7-n7-116" style="edgeStyle=orthogonalEdgeStyle;rounded=0;orthogonalLoop=1;jettySize=auto;html=1;exitX=0.5;exitY=1;exitDx=0;exitDy=0;entryX=0.5;entryY=0;entryDx=0;entryDy=0;" edge="1" parent="1" source="4ijnzWLCs2FJMQsc7-n7-107" target="4ijnzWLCs2FJMQsc7-n7-114">
          <mxGeometry relative="1" as="geometry" />
        </mxCell>
        <mxCell id="4ijnzWLCs2FJMQsc7-n7-107" value="Transfer" style="html=1;align=center;verticalAlign=top;rounded=1;absoluteArcSize=1;arcSize=10;dashed=0;whiteSpace=wrap;" vertex="1" parent="1">
          <mxGeometry x="384" y="2285" width="80" height="25" as="geometry" />
        </mxCell>
        <mxCell id="4ijnzWLCs2FJMQsc7-n7-117" style="edgeStyle=orthogonalEdgeStyle;rounded=0;orthogonalLoop=1;jettySize=auto;html=1;exitX=0.5;exitY=1;exitDx=0;exitDy=0;entryX=1;entryY=0.5;entryDx=0;entryDy=0;" edge="1" parent="1" source="4ijnzWLCs2FJMQsc7-n7-108" target="4ijnzWLCs2FJMQsc7-n7-114">
          <mxGeometry relative="1" as="geometry" />
        </mxCell>
        <mxCell id="4ijnzWLCs2FJMQsc7-n7-108" value="History" style="html=1;align=center;verticalAlign=top;rounded=1;absoluteArcSize=1;arcSize=10;dashed=0;whiteSpace=wrap;" vertex="1" parent="1">
          <mxGeometry x="530" y="2255" width="75" height="30" as="geometry" />
        </mxCell>
        <mxCell id="4ijnzWLCs2FJMQsc7-n7-114" value="" style="ellipse;html=1;shape=endState;fillColor=strokeColor;" vertex="1" parent="1">
          <mxGeometry x="399" y="2370" width="30" height="30" as="geometry" />
        </mxCell>
        <mxCell id="4ijnzWLCs2FJMQsc7-n7-137" style="edgeStyle=orthogonalEdgeStyle;rounded=0;orthogonalLoop=1;jettySize=auto;html=1;exitX=0.5;exitY=1;exitDx=0;exitDy=0;entryX=0.5;entryY=0;entryDx=0;entryDy=0;" edge="1" parent="1" source="4ijnzWLCs2FJMQsc7-n7-121" target="4ijnzWLCs2FJMQsc7-n7-136">
          <mxGeometry relative="1" as="geometry" />
        </mxCell>
        <mxCell id="4ijnzWLCs2FJMQsc7-n7-121" value="" style="ellipse;fillColor=strokeColor;html=1;" vertex="1" parent="1">
          <mxGeometry x="950" y="2090" width="30" height="30" as="geometry" />
        </mxCell>
        <mxCell id="4ijnzWLCs2FJMQsc7-n7-131" style="edgeStyle=orthogonalEdgeStyle;rounded=0;orthogonalLoop=1;jettySize=auto;html=1;exitX=0.5;exitY=1;exitDx=0;exitDy=0;entryX=0;entryY=0.5;entryDx=0;entryDy=0;" edge="1" parent="1" source="4ijnzWLCs2FJMQsc7-n7-122" target="4ijnzWLCs2FJMQsc7-n7-130">
          <mxGeometry relative="1" as="geometry" />
        </mxCell>
        <mxCell id="4ijnzWLCs2FJMQsc7-n7-122" value="PolicyChange" style="html=1;align=center;verticalAlign=top;rounded=1;absoluteArcSize=1;arcSize=10;dashed=0;whiteSpace=wrap;" vertex="1" parent="1">
          <mxGeometry x="730" y="2240" width="90" height="30" as="geometry" />
        </mxCell>
        <mxCell id="4ijnzWLCs2FJMQsc7-n7-132" style="edgeStyle=orthogonalEdgeStyle;rounded=0;orthogonalLoop=1;jettySize=auto;html=1;exitX=0.5;exitY=1;exitDx=0;exitDy=0;entryX=0;entryY=0;entryDx=0;entryDy=0;" edge="1" parent="1" source="4ijnzWLCs2FJMQsc7-n7-123" target="4ijnzWLCs2FJMQsc7-n7-130">
          <mxGeometry relative="1" as="geometry" />
        </mxCell>
        <mxCell id="4ijnzWLCs2FJMQsc7-n7-123" value="Promotions" style="html=1;align=center;verticalAlign=top;rounded=1;absoluteArcSize=1;arcSize=10;dashed=0;whiteSpace=wrap;" vertex="1" parent="1">
          <mxGeometry x="860" y="2240" width="90" height="30" as="geometry" />
        </mxCell>
        <mxCell id="4ijnzWLCs2FJMQsc7-n7-133" style="edgeStyle=orthogonalEdgeStyle;rounded=0;orthogonalLoop=1;jettySize=auto;html=1;exitX=0.5;exitY=1;exitDx=0;exitDy=0;entryX=1;entryY=0;entryDx=0;entryDy=0;" edge="1" parent="1" source="4ijnzWLCs2FJMQsc7-n7-124" target="4ijnzWLCs2FJMQsc7-n7-130">
          <mxGeometry relative="1" as="geometry" />
        </mxCell>
        <mxCell id="4ijnzWLCs2FJMQsc7-n7-124" value="Expiration" style="html=1;align=center;verticalAlign=top;rounded=1;absoluteArcSize=1;arcSize=10;dashed=0;whiteSpace=wrap;" vertex="1" parent="1">
          <mxGeometry x="980" y="2240" width="80" height="30" as="geometry" />
        </mxCell>
        <mxCell id="4ijnzWLCs2FJMQsc7-n7-134" style="edgeStyle=orthogonalEdgeStyle;rounded=0;orthogonalLoop=1;jettySize=auto;html=1;exitX=0.5;exitY=1;exitDx=0;exitDy=0;entryX=1;entryY=0.5;entryDx=0;entryDy=0;" edge="1" parent="1" source="4ijnzWLCs2FJMQsc7-n7-125" target="4ijnzWLCs2FJMQsc7-n7-130">
          <mxGeometry relative="1" as="geometry" />
        </mxCell>
        <mxCell id="4ijnzWLCs2FJMQsc7-n7-125" value="ServiceAlert" style="html=1;align=center;verticalAlign=top;rounded=1;absoluteArcSize=1;arcSize=10;dashed=0;whiteSpace=wrap;" vertex="1" parent="1">
          <mxGeometry x="1090" y="2240" width="90" height="30" as="geometry" />
        </mxCell>
        <mxCell id="4ijnzWLCs2FJMQsc7-n7-130" value="" style="ellipse;html=1;shape=endState;fillColor=strokeColor;" vertex="1" parent="1">
          <mxGeometry x="950" y="2340" width="30" height="30" as="geometry" />
        </mxCell>
        <mxCell id="4ijnzWLCs2FJMQsc7-n7-138" style="edgeStyle=orthogonalEdgeStyle;rounded=0;orthogonalLoop=1;jettySize=auto;html=1;exitX=0;exitY=0.75;exitDx=0;exitDy=0;entryX=0.25;entryY=0;entryDx=0;entryDy=0;" edge="1" parent="1" source="4ijnzWLCs2FJMQsc7-n7-136" target="4ijnzWLCs2FJMQsc7-n7-122">
          <mxGeometry relative="1" as="geometry" />
        </mxCell>
        <mxCell id="4ijnzWLCs2FJMQsc7-n7-142" value="Fare change" style="edgeLabel;html=1;align=center;verticalAlign=middle;resizable=0;points=[];" vertex="1" connectable="0" parent="4ijnzWLCs2FJMQsc7-n7-138">
          <mxGeometry x="0.6109" y="-2" relative="1" as="geometry">
            <mxPoint as="offset" />
          </mxGeometry>
        </mxCell>
        <mxCell id="4ijnzWLCs2FJMQsc7-n7-139" style="edgeStyle=orthogonalEdgeStyle;rounded=0;orthogonalLoop=1;jettySize=auto;html=1;exitX=0.25;exitY=1;exitDx=0;exitDy=0;entryX=0.5;entryY=0;entryDx=0;entryDy=0;" edge="1" parent="1" source="4ijnzWLCs2FJMQsc7-n7-136" target="4ijnzWLCs2FJMQsc7-n7-123">
          <mxGeometry relative="1" as="geometry" />
        </mxCell>
        <mxCell id="4ijnzWLCs2FJMQsc7-n7-143" value="Discounts" style="edgeLabel;html=1;align=center;verticalAlign=middle;resizable=0;points=[];" vertex="1" connectable="0" parent="4ijnzWLCs2FJMQsc7-n7-139">
          <mxGeometry x="-0.0405" y="-1" relative="1" as="geometry">
            <mxPoint as="offset" />
          </mxGeometry>
        </mxCell>
        <mxCell id="4ijnzWLCs2FJMQsc7-n7-140" style="edgeStyle=orthogonalEdgeStyle;rounded=0;orthogonalLoop=1;jettySize=auto;html=1;exitX=0.75;exitY=1;exitDx=0;exitDy=0;entryX=0.5;entryY=0;entryDx=0;entryDy=0;" edge="1" parent="1" source="4ijnzWLCs2FJMQsc7-n7-136" target="4ijnzWLCs2FJMQsc7-n7-124">
          <mxGeometry relative="1" as="geometry" />
        </mxCell>
        <mxCell id="4ijnzWLCs2FJMQsc7-n7-144" value="Pass expiring soon&amp;nbsp;" style="edgeLabel;html=1;align=center;verticalAlign=middle;resizable=0;points=[];" vertex="1" connectable="0" parent="4ijnzWLCs2FJMQsc7-n7-140">
          <mxGeometry x="-0.6414" relative="1" as="geometry">
            <mxPoint as="offset" />
          </mxGeometry>
        </mxCell>
        <mxCell id="4ijnzWLCs2FJMQsc7-n7-136" value="AlertTypes" style="html=1;align=center;verticalAlign=top;rounded=1;absoluteArcSize=1;arcSize=10;dashed=0;whiteSpace=wrap;" vertex="1" parent="1">
          <mxGeometry x="922.5" y="2150" width="85" height="30" as="geometry" />
        </mxCell>
        <mxCell id="4ijnzWLCs2FJMQsc7-n7-141" style="edgeStyle=orthogonalEdgeStyle;rounded=0;orthogonalLoop=1;jettySize=auto;html=1;exitX=1;exitY=0.75;exitDx=0;exitDy=0;entryX=0.416;entryY=0.16;entryDx=0;entryDy=0;entryPerimeter=0;" edge="1" parent="1" source="4ijnzWLCs2FJMQsc7-n7-136" target="4ijnzWLCs2FJMQsc7-n7-125">
          <mxGeometry relative="1" as="geometry" />
        </mxCell>
        <mxCell id="4ijnzWLCs2FJMQsc7-n7-145" value="Transit disruption" style="edgeLabel;html=1;align=center;verticalAlign=middle;resizable=0;points=[];" vertex="1" connectable="0" parent="4ijnzWLCs2FJMQsc7-n7-141">
          <mxGeometry x="0.667" y="-2" relative="1" as="geometry">
            <mxPoint as="offset" />
          </mxGeometry>
        </mxCell>
      </root>
    </mxGraphModel>
  </diagram>
</mxfile>
